<?xml version="1.0" encoding="UTF-8" standalone="no"?>
<svg width="418px" height="402px" viewBox="0 0 418 402" version="1.1" xmlns="http://www.w3.org/2000/svg" xmlns:xlink="http://www.w3.org/1999/xlink" xmlns:sketch="http://www.bohemiancoding.com/sketch/ns">
    <!-- Generator: Sketch 3.2.2 (9983) - http://www.bohemiancoding.com/sketch -->
    <title>logo</title>
    <desc>Created with Sketch.</desc>
    <defs></defs>
    <g id="Page-1" stroke="none" stroke-width="1" fill="none" fill-rule="evenodd" sketch:type="MSPage">
        <g id="logo" sketch:type="MSLayerGroup" transform="translate(31.000000, 23.000000)">
            <circle id="outer" stroke="#5E1A17" stroke-width="12" sketch:type="MSShapeGroup" cx="178" cy="178" r="178"></circle>
            <circle id="inner" stroke="#5E1A17" stroke-width="6" sketch:type="MSShapeGroup" cx="178" cy="178" r="160"></circle>
            <path d="M175.074461,134.948463 L171.981675,136.255062 L168.993352,140.789465 L167.16585,143.81637 L160.942719,144.362522 L153.792339,143.981555 L145.769875,142.393695 L137.982158,139.747758 L125.498337,136.058625 L117.108495,132.534678 L110.885364,129.919992 L104.753784,129.919992 L99.0400531,130.300959 L91.3309764,131.990014 L84.5855343,133.048091 L73.64165,132.7832 L60.610869,131.592677 L48.6364474,131.592677 L41.8910053,132.634384 L38.4848329,134.851733 L40.3510679,135.646407 L64.9266843,135.942549 L67.2095946,137.381594 L64.1168087,138.953084 L49.1165041,138.953084 L40.9109385,141.070726 L34.7875747,144.71075 L37.5798849,145.108087 L46.3324101,144.71075 L57.4723076,142.859487 L55.1893974,145.224163 L45.3394321,148.383513 L38.4237988,151.542863 L34.8087019,153.263168 L34,155.729039 L42.4015791,154.654592 L50.6869586,152.404504 L56.921827,150.965459 L55.1483168,153.977482 L45.4814538,158.046094 L38.4367098,162.2159 L36.8169586,165.095477 L42.7396141,165.491326 L48.7667318,162.994204 L53.921766,160.232191 L56.921827,159.437517 L53.1787932,164.549324 L44.9978759,169.280164 L39.9719523,174.408341 L39.9602149,177.287919 L46.1575239,175.319091 L52.3430955,171.513883 L56.8056274,168.503348 L60.5486612,165.460074 L62.7400202,164.6654 L61.5005584,167.894694 L54.6647389,173.783317 L50.030842,179.393656 L46.350016,183.445898 L45.7490649,186.325475 L51.985107,183.859604 L58.3913404,179.377286 L63.571023,174.397924 L68.9091596,169.333738 L67.2154632,174.180654 L61.8644156,180.482984 L58.4453321,185.743607 L57.8197325,191.215547 L62.907864,189.24672 L66.6391604,184.134913 L69.952608,179.070726 L73.2543182,176.689681 L71.8188431,180.875857 L70.6838435,184.913217 L74.0102021,184.913217 L76.9187119,182.811944 L81.1969678,178.445702 L84.498678,174.772939 L88.2053261,175.96495 L92.1455469,175.583983 L96.3064295,177.418876 L104.315982,179.683846 L113.148321,182.314901 L120.635562,183.372978 L125.790596,185.178108 L132.952714,188.617231 L136.905846,189.807754 L140.753341,190.205091 L145.854384,190.205091 L147.81217,193.596593 L151.752391,193.596593 L153.38388,191.395614 L159.319446,190.998277 L162.657542,191.644136 L164.59068,198.343803 L165.10008,202.529978 L162.412232,210.917212 L157.624576,226.728843 L159.373438,229.755747 L167.032044,231.359977 L172.236375,232.53413 L176.360872,234.619033 L182.621563,235 L190.747314,233.312434 L198.849592,232.285608 L201.003391,231.508792 L199.762756,225.602311 L195.706335,215.442687 L192.914025,207.716193 L191.570101,203.16542 L191.269626,196.449383 L192.091238,192.660544 L195.823709,190.279499 L205.802784,190.295868 L212.31348,189.353867 L217.93566,186.47429 L224.000337,185.399843 L234.423084,180.770198 L243.555899,177.081065 L251.853015,173.689563 L259.211146,170.132876 L263.451842,166.989896 L267.875641,169.323321 L269.913241,166.577678 L273.006027,166.445232 L278.31482,171.207323 L282.960455,174.350304 L287.746937,174.366673 L286.391275,171.138868 L283.231587,168.159585 L282.292601,163.842452 L287.392469,168.853064 L291.424241,173.981241 L296.9044,177.637635 L302.122815,179.1243 L299.188484,173.56307 L295.782311,169.478089 L292.284588,166.169924 L289.413637,162.631095 L286.541513,159.782769 L285.001576,156.043039 L292.673093,161.831956 L299.000686,166.314275 L304.126377,168.03458 L307.833025,171.823419 L313.012708,172.219268 L310.57956,168.463168 L306.931599,164.774036 L302.256621,160.8215 L297.72836,157.546074 L294.686045,155.461171 L294.268196,153.026552 L301.965535,156.863012 L309.194555,160.68459 L314.779176,162.090895 L319.357907,162.852829 L315.969341,158.017819 L311.711038,155.291521 L306.348253,151.983356 L301.075846,149.221343 L296.573407,146.887919 L298.738944,145.612571 L309.65818,148.359702 L319.245229,148.359702 L319.741718,146.094733 L314.875422,143.215156 L306.473843,140.982925 L299.728401,138.881653 L291.080338,136.749129 L286.890112,134.430585 L300.234279,135.854748 L311.687564,137.394987 L319.579743,136.99765 L323,135.658312 L319.226449,132.018289 L311.112435,130.991463 L300.899786,129.964637 L290.998176,129.684864 L284.162357,128.260701 L287.617826,126.540396 L298.875097,126.540396 L307.694525,126.244253 L312.235697,124.672763 L309.456298,121.397337 L300.611048,121 L288.20704,122.043196 L282.780873,122.687566 L261.009305,122.687566 L249.635834,123.068533 L240.202544,125.846916 L227.392425,131.668573 L215.455563,136.78038 L205.292211,140.701664 L198.000983,142.686861 L194.620633,144.142275 L187.628706,144.142275 L181.872721,142.173448 L179.093322,138.268533 L176.75642,135.817545 L175.074461,134.948463 Z" id="condor" stroke="#FFFFFF" stroke-width="1.30000007" fill="#5E1A17" sketch:type="MSShapeGroup" transform="translate(178.500000, 178.000000) rotate(2.000000) translate(-178.500000, -178.000000) "></path>
            <g id="bolt" transform="translate(110.000000, 48.000000)" sketch:type="MSShapeGroup" stroke-linecap="round" stroke-linejoin="round">
                <path d="M54.9339407,5.68476318 C62.7735746,80.2739046 13.6660154,135.531632 13.6660154,135.531632 L122.333984,123.46132 C122.333984,123.46132 73.2264173,179.726114 81.0660551,254.315241" id="white" stroke="#FFFFFF" stroke-width="16" transform="translate(68.000000, 130.000002) rotate(6.000000) translate(-68.000000, -130.000002) "></path>
                <path d="M54.9339407,5.68476318 C62.7735746,80.2739046 13.6660154,135.531632 13.6660154,135.531632 L122.333984,123.46132 C122.333984,123.46132 73.2264173,179.726114 81.0660551,254.315241" id="black" stroke="#5E1A17" stroke-width="8" transform="translate(68.000000, 130.000002) rotate(6.000000) translate(-68.000000, -130.000002) "></path>
            </g>
        </g>
    </g>
</svg>